<?xml version="1.0" standalone="no"?>
<!DOCTYPE svg PUBLIC "-//W3C//DTD SVG 20010904//EN"
 "http://www.w3.org/TR/2001/REC-SVG-20010904/DTD/svg10.dtd">
<svg version="1.0" xmlns="http://www.w3.org/2000/svg"
 width="600.000000pt" height="600.000000pt" viewBox="0 0 600.000000 600.000000"
 preserveAspectRatio="xMidYMid meet">

<g transform="translate(0.000000,600.000000) scale(0.100000,-0.100000)"
fill="#001D57" stroke="none">
<path d="M2837 5873 c-4 -3 -7 -111 -7 -240 l0 -233 53 0 c58 0 221 -23 326
-45 769 -166 1373 -774 1525 -1538 70 -348 35 -744 -93 -1074 -120 -306 -243
-467 -715 -937 -344 -342 -1095 -1066 -1114 -1073 -14 -6 -1387 1355 -1495
1482 -88 103 -177 236 -234 348 -96 192 -170 479 -193 752 -7 77 -14 146 -16
153 -3 10 -56 12 -241 10 l-238 -3 -3 -55 c-7 -98 34 -399 78 -587 56 -233
160 -463 321 -707 183 -278 193 -289 894 -967 264 -255 627 -607 806 -782 180
-174 331 -317 335 -317 4 0 159 150 343 333 607 602 934 922 1071 1049 228
211 491 512 630 718 165 245 250 454 330 810 41 185 54 598 24 799 -89 603
-378 1151 -790 1496 -352 294 -738 488 -1134 571 -165 34 -444 57 -463 37z"/>
<path d="M2635 4766 c-234 -32 -429 -107 -586 -226 -96 -72 -247 -233 -318
-341 -169 -252 -233 -455 -233 -739 0 -210 45 -389 157 -625 123 -259 476
-534 800 -624 176 -49 453 -58 635 -21 300 61 538 195 722 407 178 205 282
440 323 732 19 133 19 217 0 337 -47 287 -192 555 -425 782 -258 252 -668 373
-1075 318z m223 -688 l-3 -73 -330 0 -330 0 -3 73 -3 72 336 0 336 0 -3 -72z
m640 -378 c3 -475 0 -522 -44 -592 -32 -51 -84 -83 -174 -107 -177 -49 -359
-7 -438 102 -65 92 -72 120 -72 311 0 161 -2 175 -21 200 -46 59 -145 84 -260
66 -89 -14 -131 -37 -167 -90 -22 -34 -23 -41 -20 -202 3 -151 5 -169 24 -195
12 -15 31 -29 43 -31 61 -9 69 65 16 152 l-35 58 43 39 c24 22 50 38 62 36 26
-3 79 -74 104 -142 55 -146 1 -269 -138 -315 -39 -13 -45 -12 -102 16 -75 35
-120 84 -148 158 -19 51 -21 78 -21 247 0 182 1 192 25 239 69 137 155 180
360 180 203 0 314 -52 371 -175 22 -46 24 -62 24 -223 0 -164 1 -174 24 -210
51 -80 97 -94 234 -72 89 14 130 32 141 63 5 12 11 224 15 472 4 247 10 453
13 458 2 4 35 7 71 5 l67 -3 3 -445z"/>
</g>
</svg>
